<svg width="1612" height="328" viewBox="0 0 1612 328" fill="none" xmlns="http://www.w3.org/2000/svg">
<path d="M483.2 84.4051V103.42H445.33V226.503H421.994V103.42H383.92V84.4051H483.2Z" fill="black"/>
<path d="M608.364 113.847L539.176 279.457H515.021L537.947 224.663L493.527 113.847H519.524L551.253 199.719L584.21 113.847H608.364Z" fill="black"/>
<path d="M649.311 130.408C653.268 125.228 658.659 120.867 665.482 117.323C672.306 113.779 680.016 112.007 688.613 112.007C698.439 112.007 707.378 114.46 715.429 119.367C723.617 124.138 730.031 130.885 734.671 139.609C739.311 148.332 741.631 158.351 741.631 169.664C741.631 180.977 739.311 191.132 734.671 200.128C730.031 208.988 723.617 215.939 715.429 220.983C707.378 225.89 698.439 228.343 688.613 228.343C680.016 228.343 672.374 226.639 665.687 223.232C659 219.688 653.541 215.326 649.311 210.146V280.071H625.975V113.847H649.311V130.408ZM717.886 169.664C717.886 161.894 716.248 155.215 712.973 149.627C709.834 143.902 705.604 139.609 700.281 136.746C695.096 133.747 689.5 132.248 683.496 132.248C677.628 132.248 672.033 133.747 666.71 136.746C661.525 139.745 657.294 144.107 654.019 149.831C650.88 155.556 649.311 162.303 649.311 170.073C649.311 177.842 650.88 184.657 654.019 190.518C657.294 196.243 661.525 200.605 666.71 203.604C672.033 206.602 677.628 208.102 683.496 208.102C689.5 208.102 695.096 206.602 700.281 203.604C705.604 200.469 709.834 195.971 712.973 190.11C716.248 184.248 717.886 177.433 717.886 169.664Z" fill="black"/>
<path d="M868.081 167.415C868.081 171.64 867.808 175.457 867.263 178.864H781.084C781.766 187.861 785.109 195.085 791.114 200.537C797.119 205.989 804.488 208.715 813.222 208.715C825.777 208.715 834.647 203.467 839.833 192.972H865.011C861.599 203.331 855.39 211.85 846.383 218.529C837.513 225.072 826.459 228.343 813.222 228.343C802.441 228.343 792.752 225.958 784.154 221.187C775.693 216.28 769.006 209.465 764.094 200.741C759.317 191.882 756.929 181.659 756.929 170.073C756.929 158.487 759.249 148.332 763.889 139.609C768.665 130.749 775.284 123.934 783.745 119.163C792.342 114.392 802.168 112.007 813.222 112.007C823.866 112.007 833.351 114.324 841.675 118.958C849.999 123.593 856.482 130.135 861.122 138.586C865.761 146.901 868.081 156.51 868.081 167.415ZM843.722 160.054C843.586 151.467 840.515 144.584 834.51 139.404C828.506 134.225 821.069 131.635 812.198 131.635C804.147 131.635 797.255 134.225 791.523 139.404C785.792 144.447 782.38 151.331 781.288 160.054H843.722Z" fill="black"/>
<path d="M883.268 155.147C883.268 141.244 886.475 128.772 892.889 117.732C899.439 106.691 908.241 98.1037 919.295 91.97C930.485 85.7 942.699 82.565 955.936 82.565C971.084 82.565 984.526 86.3134 996.262 93.8101C1008.13 101.171 1016.73 111.666 1022.05 125.297H994.011C990.326 117.8 985.208 112.211 978.658 108.531C972.108 104.851 964.534 103.011 955.936 103.011C946.52 103.011 938.127 105.123 930.758 109.349C923.389 113.574 917.589 119.64 913.359 127.546C909.265 135.451 907.218 144.652 907.218 155.147C907.218 165.643 909.265 174.843 913.359 182.749C917.589 190.655 923.389 196.789 930.758 201.15C938.127 205.376 946.52 207.488 955.936 207.488C964.534 207.488 972.108 205.648 978.658 201.968C985.208 198.288 990.326 192.699 994.011 185.203H1022.05C1016.73 198.833 1008.13 209.329 996.262 216.689C984.526 224.049 971.084 227.73 955.936 227.73C942.563 227.73 930.349 224.663 919.295 218.529C908.241 212.259 899.439 203.604 892.889 192.563C886.475 181.522 883.268 169.05 883.268 155.147Z" fill="black"/>
<path d="M1107.71 112.007C1116.31 112.007 1123.95 113.847 1130.64 117.527C1137.46 121.207 1142.78 126.66 1146.6 133.884C1150.56 141.108 1152.54 149.831 1152.54 160.054V226.503H1129.41V163.53C1129.41 153.444 1126.88 145.742 1121.83 140.426C1116.78 134.974 1109.89 132.248 1101.16 132.248C1092.42 132.248 1085.46 134.974 1080.28 140.426C1075.23 145.742 1072.71 153.444 1072.71 163.53V226.503H1049.37V75.2045H1072.71V126.932C1076.66 122.162 1081.64 118.481 1087.65 115.892C1093.79 113.302 1100.48 112.007 1107.71 112.007Z" fill="black"/>
<path d="M1174.53 169.664C1174.53 158.351 1176.85 148.332 1181.49 139.609C1186.26 130.885 1192.68 124.138 1200.73 119.367C1208.92 114.46 1217.92 112.007 1227.75 112.007C1236.62 112.007 1244.33 113.779 1250.88 117.323C1257.57 120.73 1262.89 125.024 1266.85 130.204V113.847H1290.39V226.503H1266.85V209.737C1262.89 215.053 1257.5 219.483 1250.67 223.027C1243.85 226.571 1236.07 228.343 1227.34 228.343C1217.65 228.343 1208.78 225.89 1200.73 220.983C1192.68 215.939 1186.26 208.988 1181.49 200.128C1176.85 191.132 1174.53 180.977 1174.53 169.664ZM1266.85 170.073C1266.85 162.303 1265.21 155.556 1261.93 149.831C1258.79 144.107 1254.63 139.745 1249.45 136.746C1244.26 133.747 1238.67 132.248 1232.66 132.248C1226.66 132.248 1221.06 133.747 1215.88 136.746C1210.69 139.609 1206.46 143.902 1203.18 149.627C1200.05 155.215 1198.48 161.894 1198.48 169.664C1198.48 177.433 1200.05 184.248 1203.18 190.11C1206.46 195.971 1210.69 200.469 1215.88 203.604C1221.2 206.602 1226.79 208.102 1232.66 208.102C1238.67 208.102 1244.26 206.602 1249.45 203.604C1254.63 200.605 1258.79 196.243 1261.93 190.518C1265.21 184.657 1266.85 177.842 1266.85 170.073Z" fill="black"/>
<path d="M1348.26 132.861V195.221C1348.26 199.446 1349.22 202.513 1351.13 204.422C1353.18 206.194 1356.59 207.08 1361.36 207.08H1375.69V226.503H1357.27C1346.76 226.503 1338.71 224.049 1333.11 219.143C1327.52 214.236 1324.72 206.262 1324.72 195.221V132.861H1311.42V113.847H1324.72V85.8363H1348.26V113.847H1375.69V132.861H1348.26Z" fill="black"/>
<path d="M1406.62 227.934C1402.39 227.934 1398.84 226.503 1395.97 223.641C1393.11 220.778 1391.67 217.234 1391.67 213.009C1391.67 208.783 1393.11 205.239 1395.97 202.377C1398.84 199.515 1402.39 198.083 1406.62 198.083C1410.71 198.083 1414.19 199.515 1417.06 202.377C1419.92 205.239 1421.35 208.783 1421.35 213.009C1421.35 217.234 1419.92 220.778 1417.06 223.641C1414.19 226.503 1410.71 227.934 1406.62 227.934Z" fill="black"/>
<path d="M1438.8 169.664C1438.8 158.351 1441.12 148.332 1445.76 139.609C1450.53 130.885 1456.95 124.138 1465 119.367C1473.19 114.46 1482.19 112.007 1492.02 112.007C1500.89 112.007 1508.6 113.779 1515.15 117.323C1521.84 120.73 1527.16 125.024 1531.12 130.204V113.847H1554.66V226.503H1531.12V209.737C1527.16 215.053 1521.77 219.483 1514.95 223.027C1508.12 226.571 1500.34 228.343 1491.61 228.343C1481.92 228.343 1473.05 225.89 1465 220.983C1456.95 215.939 1450.53 208.988 1445.76 200.128C1441.12 191.132 1438.8 180.977 1438.8 169.664ZM1531.12 170.073C1531.12 162.303 1529.48 155.556 1526.2 149.831C1523.07 144.107 1518.9 139.745 1513.72 136.746C1508.53 133.747 1502.94 132.248 1496.93 132.248C1490.93 132.248 1485.33 133.747 1480.15 136.746C1474.96 139.609 1470.73 143.902 1467.46 149.627C1464.32 155.215 1462.75 161.894 1462.75 169.664C1462.75 177.433 1464.32 184.248 1467.46 190.11C1470.73 195.971 1474.96 200.469 1480.15 203.604C1485.47 206.602 1491.06 208.102 1496.93 208.102C1502.94 208.102 1508.53 206.602 1513.72 203.604C1518.9 200.605 1523.07 196.243 1526.2 190.518C1529.48 184.657 1531.12 177.842 1531.12 170.073Z" fill="black"/>
<path d="M1597.18 98.9216C1592.95 98.9216 1589.4 97.4904 1586.54 94.628C1583.67 91.7656 1582.24 88.2216 1582.24 83.9962C1582.24 79.7707 1583.67 76.2268 1586.54 73.3644C1589.4 70.502 1592.95 69.0708 1597.18 69.0708C1601.28 69.0708 1604.76 70.502 1607.62 73.3644C1610.49 76.2268 1611.92 79.7707 1611.92 83.9962C1611.92 88.2216 1610.49 91.7656 1607.62 94.628C1604.76 97.4904 1601.28 98.9216 1597.18 98.9216ZM1608.64 113.847V226.503H1585.31V113.847H1608.64Z" fill="black"/>
<mask id="mask0_2_6" style="mask-type:alpha" maskUnits="userSpaceOnUse" x="11" y="11" width="305" height="305">
<path d="M20.6041 188.461C9.22478 177.85 8.60204 160.023 19.2132 148.644L138.609 20.6041C149.221 9.22478 167.047 8.60205 178.427 19.2132L306.467 138.609C317.846 149.221 318.469 167.047 307.858 178.427L188.461 306.467C177.85 317.846 160.023 318.469 148.644 307.858L20.6041 188.461Z" fill="#D9D9D9"/>
</mask>
<g mask="url(#mask0_2_6)">
<path d="M-14.0862 -15.092H406.485V352.154H-14.0862V-15.092Z" fill="#5653FF"/>
<path d="M265.624 221.857C272.063 206.966 260.928 198.548 254.556 196.2L291.281 197.206C280.045 211.627 259.184 236.748 265.624 221.857Z" fill="#40DD5D"/>
<path d="M43.4188 126.969C36.595 141.688 47.5075 150.392 53.8167 152.905L17.1306 150.945C28.7366 136.82 50.2426 112.25 43.4188 126.969Z" fill="#FE81C9"/>
<path d="M119.732 69.4246C119.732 64.9791 123.336 61.3754 127.781 61.3754H311.907C316.353 61.3754 319.956 64.9791 319.956 69.4246V190.163C319.956 194.608 316.353 198.212 311.907 198.212H127.781C123.336 198.212 119.732 194.608 119.732 190.163V69.4246Z" fill="#40DD5D"/>
<path d="M-4.02466 155.954C-4.02466 151.508 -0.4209 147.904 4.02456 147.904H180.101C184.547 147.904 188.15 151.508 188.15 155.954V276.692C188.15 281.137 184.547 284.741 180.101 284.741H4.02456C-0.420895 284.741 -4.02466 281.137 -4.02466 276.692V155.954Z" fill="#FE81C9"/>
</g>
<mask id="mask1_2_6" style="mask-type:alpha" maskUnits="userSpaceOnUse" x="119" y="61" width="192" height="137">
<path d="M119.134 69.1436C119.134 64.6981 122.738 61.0944 127.183 61.0944H302.254C306.699 61.0944 310.303 64.6981 310.303 69.1436V189.882C310.303 194.327 306.699 197.931 302.254 197.931H127.183C122.738 197.931 119.134 194.327 119.134 189.882V69.1436Z" fill="#40DD5D"/>
</mask>
<g mask="url(#mask1_2_6)">
<path d="M-3.05469 154.712C-3.05469 150.247 0.554169 146.626 5.00592 146.626H181.332C185.783 146.626 189.392 150.247 189.392 154.712V276.002C189.392 280.468 185.783 284.088 181.332 284.088H5.00592C0.554174 284.088 -3.05469 280.468 -3.05469 276.002V154.712Z" fill="white"/>
</g>
<path fill-rule="evenodd" clip-rule="evenodd" d="M137.462 88.5504C137.462 86.8834 138.813 85.532 140.48 85.532H219.967C221.634 85.532 222.985 86.8834 222.985 88.5504C222.985 90.2175 221.634 91.5689 219.967 91.5689H140.48C138.813 91.5689 137.462 90.2175 137.462 88.5504Z" fill="black" fill-opacity="0.2"/>
<path fill-rule="evenodd" clip-rule="evenodd" d="M137.462 106.661C137.462 104.994 138.813 103.643 140.48 103.643H198.837C200.504 103.643 201.856 104.994 201.856 106.661C201.856 108.328 200.504 109.68 198.837 109.68H140.48C138.813 109.68 137.462 108.328 137.462 106.661Z" fill="black" fill-opacity="0.2"/>
<path fill-rule="evenodd" clip-rule="evenodd" d="M137.462 124.772C137.462 123.105 138.813 121.753 140.48 121.753H175.696C177.363 121.753 178.714 123.105 178.714 124.772C178.714 126.439 177.363 127.79 175.696 127.79H140.48C138.813 127.79 137.462 126.439 137.462 124.772Z" fill="black" fill-opacity="0.2"/>
<path fill-rule="evenodd" clip-rule="evenodd" d="M179.957 255.555C179.961 257.222 178.613 258.577 176.946 258.581L108.757 258.742C107.09 258.746 105.735 257.398 105.731 255.731C105.727 254.064 107.075 252.709 108.742 252.705L176.932 252.544C178.599 252.54 179.953 253.888 179.957 255.555Z" fill="black" fill-opacity="0.2"/>
<path fill-rule="evenodd" clip-rule="evenodd" d="M179.915 237.445C179.919 239.112 178.57 240.466 176.903 240.47L126.841 240.589C125.173 240.592 123.819 239.244 123.815 237.577C123.811 235.91 125.159 234.556 126.826 234.552L176.889 234.433C178.556 234.429 179.911 235.778 179.915 237.445Z" fill="black" fill-opacity="0.2"/>
<path fill-rule="evenodd" clip-rule="evenodd" d="M179.872 219.334C179.875 221.001 178.527 222.356 176.86 222.36L146.65 222.431C144.983 222.435 143.628 221.087 143.624 219.42C143.62 217.753 144.969 216.398 146.636 216.394L176.846 216.323C178.513 216.319 179.868 217.667 179.872 219.334Z" fill="black" fill-opacity="0.2"/>
</svg>
